<svg xmlns="http://www.w3.org/2000/svg" xmlns:xlink="http://www.w3.org/1999/xlink" width="500" zoomAndPan="magnify" viewBox="0 0 375 374.999991" height="500" preserveAspectRatio="xMidYMid meet" version="1.0"><defs><g/><clipPath id="id1"><path d="M 76.628906 8.449219 L 298.628906 8.449219 L 298.628906 213.949219 L 76.628906 213.949219 Z M 76.628906 8.449219 " clip-rule="nonzero"/></clipPath><clipPath id="id2"><path d="M 76.628906 55 L 298.628906 55 L 298.628906 72 L 76.628906 72 Z M 76.628906 55 " clip-rule="nonzero"/></clipPath></defs><rect x="-37.5" width="450" fill="#ffffff" y="-37.499999" height="449.999989" fill-opacity="1"/><rect x="-37.5" width="450" fill="#ffffff" y="-37.499999" height="449.999989" fill-opacity="1"/><rect x="-37.5" width="450" fill="#ffffff" y="-37.499999" height="449.999989" fill-opacity="1"/><rect x="-37.5" width="450" fill="#ffffff" y="-37.499999" height="449.999989" fill-opacity="1"/><path fill="#000000" d="M 145.40625 158.625 C 144.355469 158.625 143.34375 158.421875 142.375 158.023438 C 141.40625 157.621094 140.550781 157.050781 139.808594 156.308594 L 118.691406 135.234375 C 118.324219 134.871094 117.996094 134.46875 117.707031 134.039062 C 117.417969 133.605469 117.171875 133.152344 116.972656 132.671875 C 116.773438 132.191406 116.621094 131.695312 116.519531 131.1875 C 116.417969 130.679688 116.367188 130.164062 116.367188 129.644531 C 116.367188 129.125 116.417969 128.609375 116.519531 128.101562 C 116.621094 127.59375 116.773438 127.097656 116.972656 126.617188 C 117.171875 126.136719 117.417969 125.683594 117.707031 125.25 C 117.996094 124.820312 118.324219 124.417969 118.691406 124.050781 L 139.808594 102.972656 C 140.175781 102.605469 140.574219 102.277344 141.007812 101.988281 C 141.441406 101.699219 141.894531 101.457031 142.378906 101.257812 C 142.859375 101.058594 143.351562 100.910156 143.863281 100.808594 C 144.375 100.707031 144.886719 100.65625 145.410156 100.65625 C 145.929688 100.65625 146.445312 100.707031 146.953125 100.808594 C 147.464844 100.910156 147.960938 101.058594 148.441406 101.257812 C 148.921875 101.457031 149.378906 101.699219 149.808594 101.988281 C 150.242188 102.277344 150.644531 102.605469 151.011719 102.972656 C 151.378906 103.339844 151.707031 103.738281 151.996094 104.171875 C 152.285156 104.605469 152.527344 105.058594 152.726562 105.539062 C 152.925781 106.019531 153.074219 106.515625 153.175781 107.023438 C 153.277344 107.53125 153.328125 108.046875 153.328125 108.566406 C 153.328125 109.085938 153.277344 109.601562 153.175781 110.109375 C 153.074219 110.617188 152.921875 111.113281 152.722656 111.59375 C 152.523438 112.070312 152.277344 112.527344 151.988281 112.960938 C 151.699219 113.390625 151.371094 113.789062 151.003906 114.15625 L 135.484375 129.640625 L 151.003906 145.132812 C 151.554688 145.683594 152.015625 146.304688 152.386719 146.996094 C 152.753906 147.683594 153.015625 148.410156 153.167969 149.179688 C 153.320312 149.945312 153.359375 150.71875 153.28125 151.496094 C 153.207031 152.273438 153.019531 153.023438 152.71875 153.746094 C 152.417969 154.464844 152.019531 155.128906 151.523438 155.734375 C 151.027344 156.339844 150.453125 156.859375 149.800781 157.292969 C 149.152344 157.726562 148.453125 158.054688 147.703125 158.285156 C 146.953125 158.511719 146.1875 158.625 145.40625 158.625 Z M 145.40625 158.625 " fill-opacity="1" fill-rule="nonzero"/><path fill="#000000" d="M 229.851562 158.625 C 229.070312 158.625 228.304688 158.511719 227.554688 158.28125 C 226.804688 158.054688 226.105469 157.726562 225.457031 157.292969 C 224.804688 156.855469 224.230469 156.335938 223.734375 155.734375 C 223.238281 155.128906 222.839844 154.464844 222.539062 153.746094 C 222.242188 153.023438 222.050781 152.273438 221.976562 151.496094 C 221.898438 150.71875 221.9375 149.945312 222.089844 149.179688 C 222.242188 148.410156 222.503906 147.683594 222.871094 146.996094 C 223.242188 146.304688 223.703125 145.683594 224.253906 145.132812 L 239.773438 129.640625 L 224.253906 114.15625 C 223.886719 113.789062 223.558594 113.390625 223.269531 112.960938 C 222.980469 112.527344 222.738281 112.070312 222.539062 111.59375 C 222.339844 111.113281 222.1875 110.617188 222.085938 110.109375 C 221.984375 109.601562 221.933594 109.085938 221.933594 108.566406 C 221.933594 108.046875 221.984375 107.535156 222.085938 107.023438 C 222.1875 106.515625 222.335938 106.023438 222.535156 105.542969 C 222.734375 105.0625 222.976562 104.605469 223.265625 104.175781 C 223.554688 103.742188 223.882812 103.34375 224.25 102.976562 C 224.617188 102.609375 225.019531 102.28125 225.449219 101.992188 C 225.882812 101.703125 226.339844 101.460938 226.820312 101.261719 C 227.300781 101.0625 227.796875 100.914062 228.304688 100.8125 C 228.816406 100.710938 229.332031 100.660156 229.851562 100.660156 C 230.371094 100.660156 230.886719 100.710938 231.394531 100.8125 C 231.90625 100.910156 232.402344 101.0625 232.882812 101.261719 C 233.363281 101.457031 233.816406 101.703125 234.25 101.988281 C 234.683594 102.277344 235.082031 102.605469 235.449219 102.972656 L 256.566406 124.050781 C 256.933594 124.417969 257.261719 124.820312 257.550781 125.25 C 257.84375 125.683594 258.085938 126.136719 258.285156 126.617188 C 258.484375 127.097656 258.636719 127.59375 258.738281 128.101562 C 258.839844 128.609375 258.890625 129.125 258.890625 129.644531 C 258.890625 130.164062 258.839844 130.679688 258.738281 131.1875 C 258.636719 131.695312 258.484375 132.191406 258.285156 132.671875 C 258.085938 133.152344 257.84375 133.605469 257.550781 134.039062 C 257.261719 134.46875 256.933594 134.871094 256.566406 135.234375 L 235.449219 156.308594 C 234.707031 157.050781 233.851562 157.621094 232.882812 158.023438 C 231.910156 158.421875 230.902344 158.625 229.851562 158.625 Z M 229.851562 158.625 " fill-opacity="1" fill-rule="nonzero"/><path fill="#000000" d="M 177.066406 158.625 C 176.730469 158.625 176.398438 158.601562 176.0625 158.558594 C 175.730469 158.515625 175.402344 158.453125 175.074219 158.367188 C 174.75 158.285156 174.433594 158.179688 174.121094 158.054688 C 173.808594 157.929688 173.507812 157.785156 173.214844 157.621094 C 172.921875 157.457031 172.636719 157.277344 172.367188 157.078125 C 172.097656 156.878906 171.839844 156.664062 171.597656 156.433594 C 171.355469 156.199219 171.128906 155.953125 170.917969 155.691406 C 170.707031 155.433594 170.511719 155.160156 170.335938 154.875 C 170.160156 154.589844 170 154.292969 169.863281 153.988281 C 169.722656 153.683594 169.605469 153.371094 169.503906 153.050781 C 169.40625 152.730469 169.328125 152.402344 169.269531 152.074219 C 169.214844 151.742188 169.175781 151.410156 169.160156 151.074219 C 169.148438 150.742188 169.152344 150.40625 169.179688 150.070312 C 169.207031 149.738281 169.257812 149.40625 169.328125 149.078125 C 169.394531 148.75 169.488281 148.429688 169.597656 148.113281 C 169.707031 147.796875 169.839844 147.488281 169.988281 147.1875 L 191.097656 105.027344 C 191.332031 104.5625 191.609375 104.125 191.929688 103.714844 C 192.25 103.304688 192.605469 102.929688 193 102.589844 C 193.394531 102.25 193.816406 101.953125 194.269531 101.695312 C 194.722656 101.441406 195.199219 101.230469 195.691406 101.066406 C 196.1875 100.902344 196.691406 100.789062 197.207031 100.726562 C 197.726562 100.664062 198.242188 100.648438 198.761719 100.6875 C 199.28125 100.726562 199.792969 100.8125 200.296875 100.953125 C 200.796875 101.089844 201.28125 101.277344 201.746094 101.511719 C 202.210938 101.742188 202.648438 102.019531 203.058594 102.339844 C 203.46875 102.660156 203.847656 103.015625 204.1875 103.410156 C 204.527344 103.804688 204.824219 104.226562 205.082031 104.679688 C 205.339844 105.132812 205.550781 105.605469 205.714844 106.097656 C 205.875 106.589844 205.992188 107.097656 206.054688 107.613281 C 206.117188 108.128906 206.132812 108.644531 206.09375 109.164062 C 206.054688 109.683594 205.96875 110.191406 205.828125 110.691406 C 205.6875 111.195312 205.503906 111.675781 205.269531 112.140625 L 184.160156 154.292969 C 183.828125 154.945312 183.414062 155.542969 182.917969 156.082031 C 182.417969 156.621094 181.855469 157.082031 181.230469 157.460938 C 180.601562 157.84375 179.9375 158.136719 179.230469 158.332031 C 178.523438 158.53125 177.800781 158.625 177.066406 158.625 Z M 177.066406 158.625 " fill-opacity="1" fill-rule="nonzero"/><g clip-path="url(#id1)"><path fill="#000000" d="M 290.558594 213.949219 L 84.703125 213.949219 C 84.179688 213.949219 83.667969 213.898438 83.15625 213.796875 C 82.648438 213.699219 82.152344 213.546875 81.671875 213.347656 C 81.191406 213.152344 80.734375 212.90625 80.300781 212.617188 C 79.871094 212.332031 79.46875 212.003906 79.101562 211.636719 C 78.734375 211.269531 78.40625 210.871094 78.117188 210.4375 C 77.828125 210.007812 77.585938 209.550781 77.386719 209.070312 C 77.1875 208.59375 77.039062 208.097656 76.9375 207.589844 C 76.835938 207.078125 76.785156 206.566406 76.785156 206.046875 L 76.785156 16.355469 C 76.785156 15.835938 76.835938 15.320312 76.9375 14.8125 C 77.039062 14.304688 77.1875 13.808594 77.386719 13.328125 C 77.585938 12.851562 77.828125 12.394531 78.117188 11.964844 C 78.40625 11.53125 78.734375 11.132812 79.101562 10.765625 C 79.46875 10.398438 79.871094 10.070312 80.300781 9.78125 C 80.734375 9.496094 81.191406 9.25 81.671875 9.050781 C 82.152344 8.855469 82.648438 8.703125 83.15625 8.601562 C 83.667969 8.5 84.179688 8.449219 84.703125 8.449219 L 290.558594 8.449219 C 291.078125 8.449219 291.589844 8.5 292.101562 8.601562 C 292.609375 8.703125 293.105469 8.855469 293.585938 9.050781 C 294.066406 9.25 294.523438 9.496094 294.957031 9.78125 C 295.386719 10.070312 295.789062 10.398438 296.15625 10.765625 C 296.523438 11.132812 296.851562 11.53125 297.140625 11.964844 C 297.429688 12.394531 297.671875 12.851562 297.871094 13.328125 C 298.070312 13.808594 298.21875 14.304688 298.320312 14.8125 C 298.421875 15.320312 298.472656 15.835938 298.472656 16.355469 L 298.472656 206.046875 C 298.472656 206.566406 298.421875 207.078125 298.320312 207.589844 C 298.21875 208.097656 298.070312 208.59375 297.871094 209.070312 C 297.671875 209.550781 297.429688 210.007812 297.140625 210.4375 C 296.851562 210.871094 296.523438 211.269531 296.15625 211.636719 C 295.789062 212.003906 295.386719 212.332031 294.957031 212.617188 C 294.523438 212.90625 294.066406 213.152344 293.585938 213.347656 C 293.105469 213.546875 292.609375 213.699219 292.101562 213.796875 C 291.589844 213.898438 291.078125 213.949219 290.558594 213.949219 Z M 92.617188 198.144531 L 282.640625 198.144531 L 282.640625 24.257812 L 92.617188 24.257812 Z M 92.617188 198.144531 " fill-opacity="1" fill-rule="nonzero"/></g><g clip-path="url(#id2)"><path fill="#000000" d="M 290.558594 71.679688 L 84.703125 71.679688 C 84.179688 71.679688 83.667969 71.628906 83.15625 71.53125 C 82.648438 71.429688 82.152344 71.277344 81.671875 71.078125 C 81.191406 70.882812 80.734375 70.636719 80.300781 70.347656 C 79.871094 70.0625 79.46875 69.734375 79.101562 69.367188 C 78.734375 69 78.40625 68.601562 78.117188 68.167969 C 77.828125 67.738281 77.585938 67.28125 77.386719 66.800781 C 77.1875 66.324219 77.039062 65.828125 76.9375 65.320312 C 76.835938 64.8125 76.785156 64.296875 76.785156 63.777344 C 76.785156 63.257812 76.835938 62.746094 76.9375 62.234375 C 77.039062 61.726562 77.1875 61.230469 77.386719 60.753906 C 77.585938 60.273438 77.828125 59.816406 78.117188 59.386719 C 78.40625 58.953125 78.734375 58.554688 79.101562 58.1875 C 79.46875 57.820312 79.871094 57.492188 80.300781 57.207031 C 80.734375 56.917969 81.191406 56.675781 81.671875 56.476562 C 82.152344 56.277344 82.648438 56.125 83.15625 56.027344 C 83.667969 55.925781 84.179688 55.875 84.703125 55.875 L 290.558594 55.875 C 291.078125 55.875 291.589844 55.925781 292.101562 56.027344 C 292.609375 56.125 293.105469 56.277344 293.585938 56.476562 C 294.066406 56.675781 294.523438 56.917969 294.957031 57.207031 C 295.386719 57.492188 295.789062 57.820312 296.15625 58.1875 C 296.523438 58.554688 296.851562 58.953125 297.140625 59.386719 C 297.429688 59.816406 297.671875 60.273438 297.871094 60.753906 C 298.070312 61.230469 298.21875 61.726562 298.320312 62.234375 C 298.421875 62.746094 298.472656 63.257812 298.472656 63.777344 C 298.472656 64.296875 298.421875 64.8125 298.320312 65.320312 C 298.21875 65.828125 298.070312 66.324219 297.871094 66.800781 C 297.671875 67.28125 297.429688 67.738281 297.140625 68.167969 C 296.851562 68.601562 296.523438 69 296.15625 69.367188 C 295.789062 69.734375 295.386719 70.0625 294.957031 70.347656 C 294.523438 70.636719 294.066406 70.882812 293.585938 71.078125 C 293.105469 71.277344 292.609375 71.429688 292.101562 71.53125 C 291.589844 71.628906 291.078125 71.679688 290.558594 71.679688 Z M 290.558594 71.679688 " fill-opacity="1" fill-rule="nonzero"/></g><path fill="#000000" d="M 219.300781 47.96875 C 218.769531 47.953125 218.238281 47.898438 217.714844 47.8125 C 217.214844 47.726562 216.742188 47.566406 216.289062 47.335938 C 215.78125 47.164062 215.304688 46.925781 214.855469 46.625 L 213.675781 45.679688 C 213.3125 45.308594 212.988281 44.902344 212.703125 44.46875 C 212.414062 44.035156 212.175781 43.578125 211.976562 43.097656 C 211.78125 42.617188 211.632812 42.121094 211.53125 41.609375 C 211.429688 41.101562 211.382812 40.585938 211.382812 40.066406 C 211.382812 39.546875 211.429688 39.03125 211.53125 38.523438 C 211.632812 38.011719 211.78125 37.515625 211.976562 37.035156 C 212.175781 36.554688 212.414062 36.097656 212.703125 35.664062 C 212.988281 35.226562 213.3125 34.824219 213.675781 34.453125 C 214.238281 33.914062 214.867188 33.464844 215.558594 33.105469 C 216.25 32.746094 216.980469 32.492188 217.746094 32.34375 C 218.511719 32.199219 219.28125 32.164062 220.058594 32.238281 C 220.835938 32.316406 221.585938 32.5 222.308594 32.792969 C 222.796875 32.953125 223.246094 33.191406 223.652344 33.507812 C 224.121094 33.820312 224.523438 34.136719 224.921875 34.453125 C 225.285156 34.824219 225.609375 35.226562 225.894531 35.664062 C 226.183594 36.097656 226.425781 36.554688 226.621094 37.035156 C 226.816406 37.515625 226.964844 38.011719 227.066406 38.523438 C 227.167969 39.03125 227.21875 39.546875 227.21875 40.066406 C 227.21875 40.585938 227.167969 41.101562 227.066406 41.609375 C 226.964844 42.121094 226.816406 42.617188 226.621094 43.097656 C 226.425781 43.578125 226.183594 44.035156 225.894531 44.46875 C 225.609375 44.902344 225.285156 45.308594 224.921875 45.679688 C 224.144531 46.378906 223.273438 46.933594 222.308594 47.335938 C 221.347656 47.746094 220.34375 47.957031 219.300781 47.96875 Z M 219.300781 47.96875 " fill-opacity="1" fill-rule="nonzero"/><path fill="#000000" d="M 243.050781 47.96875 C 242.519531 47.953125 241.992188 47.898438 241.46875 47.8125 C 240.96875 47.726562 240.492188 47.566406 240.042969 47.335938 C 239.535156 47.164062 239.054688 46.925781 238.609375 46.625 C 238.199219 46.332031 237.804688 46.015625 237.429688 45.679688 C 236.6875 44.925781 236.136719 44.058594 235.765625 43.070312 C 235.34375 42.113281 235.132812 41.113281 235.132812 40.066406 C 235.132812 39.019531 235.34375 38.019531 235.765625 37.0625 C 236.171875 36.097656 236.726562 35.230469 237.429688 34.453125 C 237.984375 33.898438 238.605469 33.433594 239.300781 33.058594 C 239.992188 32.6875 240.722656 32.425781 241.496094 32.269531 C 242.265625 32.117188 243.042969 32.078125 243.824219 32.152344 C 244.605469 32.230469 245.363281 32.417969 246.085938 32.71875 C 246.8125 33.019531 247.480469 33.421875 248.085938 33.921875 C 248.695312 34.421875 249.214844 34.996094 249.648438 35.652344 C 250.085938 36.304688 250.414062 37.007812 250.640625 37.761719 C 250.863281 38.511719 250.972656 39.28125 250.96875 40.066406 C 250.953125 41.113281 250.746094 42.121094 250.351562 43.089844 C 249.957031 44.058594 249.394531 44.921875 248.671875 45.679688 C 248.296875 46.015625 247.898438 46.332031 247.484375 46.625 C 247.042969 46.925781 246.566406 47.164062 246.058594 47.335938 C 245.609375 47.566406 245.132812 47.722656 244.636719 47.8125 C 244.109375 47.902344 243.582031 47.957031 243.050781 47.96875 Z M 243.050781 47.96875 " fill-opacity="1" fill-rule="nonzero"/><path fill="#000000" d="M 266.804688 47.96875 C 266.28125 47.976562 265.765625 47.929688 265.253906 47.832031 C 264.742188 47.734375 264.246094 47.585938 263.761719 47.390625 C 263.277344 47.191406 262.820312 46.949219 262.386719 46.664062 C 261.953125 46.375 261.550781 46.046875 261.183594 45.679688 C 260.8125 45.308594 260.484375 44.910156 260.195312 44.476562 C 259.90625 44.042969 259.664062 43.585938 259.46875 43.101562 C 259.269531 42.621094 259.125 42.125 259.027344 41.613281 C 258.925781 41.101562 258.882812 40.585938 258.886719 40.066406 C 258.859375 39.015625 259.070312 38.011719 259.519531 37.0625 C 259.925781 36.097656 260.480469 35.230469 261.183594 34.453125 C 261.5625 34.105469 261.972656 33.792969 262.410156 33.519531 C 262.847656 33.246094 263.304688 33.015625 263.785156 32.828125 C 264.265625 32.640625 264.761719 32.5 265.269531 32.402344 C 265.777344 32.308594 266.289062 32.261719 266.804688 32.261719 C 267.320312 32.261719 267.832031 32.308594 268.339844 32.402344 C 268.847656 32.5 269.339844 32.640625 269.820312 32.828125 C 270.304688 33.015625 270.761719 33.246094 271.199219 33.519531 C 271.636719 33.792969 272.046875 34.105469 272.425781 34.453125 C 273.128906 35.230469 273.683594 36.097656 274.089844 37.0625 C 274.496094 38.023438 274.710938 39.023438 274.722656 40.066406 C 274.726562 40.585938 274.679688 41.101562 274.582031 41.613281 C 274.484375 42.125 274.335938 42.621094 274.140625 43.101562 C 273.945312 43.585938 273.699219 44.042969 273.410156 44.476562 C 273.125 44.910156 272.796875 45.308594 272.425781 45.679688 C 272.058594 46.046875 271.65625 46.375 271.222656 46.664062 C 270.789062 46.949219 270.328125 47.191406 269.847656 47.390625 C 269.363281 47.585938 268.867188 47.734375 268.355469 47.832031 C 267.84375 47.929688 267.324219 47.976562 266.804688 47.96875 Z M 266.804688 47.96875 " fill-opacity="1" fill-rule="nonzero"/><g fill="#000000" fill-opacity="1"><g transform="translate(62.109375, 324.115263)"><g><path d="M 90.828125 0 L 60.46875 0 L 29.1875 -60.359375 L 28.65625 -60.359375 C 29.394531 -50.859375 29.765625 -43.609375 29.765625 -38.609375 L 29.765625 0 L 9.265625 0 L 9.265625 -85.671875 L 39.5 -85.671875 L 70.671875 -26.140625 L 71.015625 -26.140625 C 70.472656 -34.765625 70.203125 -41.695312 70.203125 -46.9375 L 70.203125 -85.671875 L 90.828125 -85.671875 Z M 90.828125 0 "/></g></g><g transform="translate(162.187494, 324.115263)"><g><path d="M 9.265625 -85.671875 L 39.140625 -85.671875 C 50.785156 -85.671875 59.425781 -83.941406 65.0625 -80.484375 C 70.707031 -77.023438 73.53125 -71.644531 73.53125 -64.34375 C 73.53125 -59.53125 72.300781 -55.425781 69.84375 -52.03125 C 67.382812 -48.632812 64.144531 -46.445312 60.125 -45.46875 L 60.125 -44.890625 C 65.4375 -43.484375 69.28125 -41.140625 71.65625 -37.859375 C 74.039062 -34.578125 75.234375 -30.316406 75.234375 -25.078125 C 75.234375 -17.304688 72.3125 -11.179688 66.46875 -6.703125 C 60.632812 -2.234375 52.675781 0 42.59375 0 L 9.265625 0 Z M 32.40625 -52.796875 L 39.375 -52.796875 C 42.695312 -52.796875 45.265625 -53.476562 47.078125 -54.84375 C 48.898438 -56.207031 49.8125 -58.238281 49.8125 -60.9375 C 49.8125 -65.738281 46.175781 -68.140625 38.90625 -68.140625 L 32.40625 -68.140625 Z M 32.40625 -35.859375 L 32.40625 -17.875 L 40.546875 -17.875 C 47.773438 -17.875 51.390625 -20.921875 51.390625 -27.015625 C 51.390625 -29.867188 50.421875 -32.054688 48.484375 -33.578125 C 46.554688 -35.097656 43.753906 -35.859375 40.078125 -35.859375 Z M 32.40625 -35.859375 "/></g></g><g transform="translate(243.046865, 324.115263)"><g><path d="M 9.265625 0 L 9.265625 -85.671875 L 32.40625 -85.671875 L 32.40625 -18.6875 L 65.390625 -18.6875 L 65.390625 0 Z M 9.265625 0 "/></g></g></g></svg>