<svg xmlns="http://www.w3.org/2000/svg" xmlns:xlink="http://www.w3.org/1999/xlink" width="500" zoomAndPan="magnify" viewBox="0 0 375 374.999991" height="500" preserveAspectRatio="xMidYMid meet" version="1.0"><defs><g/><clipPath id="id1"><path d="M 37.5 39 L 143 39 L 143 194 L 37.5 194 Z M 37.5 39 " clip-rule="nonzero"/></clipPath><clipPath id="id2"><path d="M 232 39 L 337.5 39 L 337.5 194 L 232 194 Z M 232 39 " clip-rule="nonzero"/></clipPath><clipPath id="id3"><path d="M 135 0 L 239 0 L 239 233.25 L 135 233.25 Z M 135 0 " clip-rule="nonzero"/></clipPath></defs><path fill="#ffffff" d="M 132.148438 190.175781 C 130.492188 190.175781 128.859375 189.617188 127.554688 188.578125 L 43.65625 122.46875 C 41.851562 121.050781 40.816406 118.917969 40.816406 116.625 C 40.816406 114.332031 41.851562 112.199219 43.652344 110.769531 L 127.554688 44.671875 C 128.859375 43.632812 130.492188 43.074219 132.148438 43.074219 C 134.441406 43.074219 136.578125 44.101562 137.984375 45.914062 C 139.210938 47.472656 139.769531 49.425781 139.527344 51.390625 C 139.300781 53.367188 138.300781 55.128906 136.742188 56.359375 L 60.277344 116.625 L 136.742188 176.878906 C 138.300781 178.121094 139.300781 179.882812 139.527344 181.847656 C 139.769531 183.824219 139.210938 185.761719 137.984375 187.335938 C 136.578125 189.136719 134.441406 190.175781 132.148438 190.175781 " fill-opacity="1" fill-rule="nonzero"/><g clip-path="url(#id1)"><path fill="#000000" d="M 132.148438 39.90625 C 129.78125 39.90625 127.464844 40.703125 125.605469 42.175781 L 41.699219 108.285156 C 39.121094 110.324219 37.652344 113.355469 37.652344 116.625 C 37.652344 119.894531 39.132812 122.9375 41.699219 124.964844 L 125.605469 191.074219 C 127.453125 192.53125 129.78125 193.34375 132.148438 193.34375 C 135.425781 193.34375 138.464844 191.859375 140.476562 189.289062 C 142.238281 187.070312 143.007812 184.292969 142.679688 181.480469 C 142.339844 178.664062 140.933594 176.140625 138.707031 174.390625 L 65.394531 116.625 L 138.707031 58.859375 C 140.933594 57.09375 142.339844 54.585938 142.679688 51.769531 C 143.007812 48.957031 142.238281 46.179688 140.476562 43.949219 C 138.464844 41.375 135.414062 39.90625 132.148438 39.90625 Z M 132.148438 46.246094 C 133.414062 46.246094 134.667969 46.800781 135.503906 47.867188 C 136.972656 49.730469 136.640625 52.417969 134.792969 53.875 L 55.152344 116.625 L 134.792969 179.375 C 136.640625 180.832031 136.972656 183.519531 135.503906 185.371094 C 134.667969 186.449219 133.414062 187.003906 132.148438 187.003906 C 131.226562 187.003906 130.300781 186.714844 129.515625 186.09375 L 45.609375 119.984375 C 44.585938 119.171875 43.984375 117.929688 43.984375 116.625 C 43.984375 115.308594 44.585938 114.078125 45.609375 113.265625 L 129.515625 47.15625 C 130.289062 46.535156 131.226562 46.246094 132.148438 46.246094 " fill-opacity="1" fill-rule="nonzero"/></g><path fill="#ffffff" d="M 242.851562 190.175781 C 240.558594 190.175781 238.433594 189.136719 237.003906 187.335938 C 234.472656 184.117188 235.027344 179.425781 238.257812 176.878906 L 314.734375 116.625 L 238.257812 56.359375 C 235.027344 53.824219 234.472656 49.132812 237.003906 45.914062 C 238.433594 44.101562 240.558594 43.074219 242.851562 43.074219 C 244.507812 43.074219 246.140625 43.632812 247.445312 44.671875 L 331.351562 110.769531 C 333.148438 112.199219 334.175781 114.332031 334.175781 116.625 C 334.175781 118.917969 333.148438 121.050781 331.339844 122.46875 L 247.445312 188.578125 C 246.140625 189.617188 244.507812 190.175781 242.851562 190.175781 " fill-opacity="1" fill-rule="nonzero"/><g clip-path="url(#id2)"><path fill="#000000" d="M 242.851562 39.90625 C 239.585938 39.90625 236.546875 41.375 234.523438 43.949219 C 230.902344 48.550781 231.699219 55.230469 236.292969 58.859375 L 309.605469 116.625 L 236.292969 174.390625 C 231.699219 178.003906 230.902344 184.699219 234.523438 189.289062 C 236.546875 191.859375 239.585938 193.34375 242.851562 193.34375 C 245.21875 193.34375 247.535156 192.53125 249.394531 191.074219 L 333.300781 124.964844 C 335.871094 122.9375 337.339844 119.894531 337.339844 116.625 C 337.339844 113.355469 335.871094 110.324219 333.316406 108.285156 L 249.40625 42.175781 C 247.546875 40.703125 245.21875 39.90625 242.851562 39.90625 Z M 242.851562 46.246094 C 243.773438 46.246094 244.710938 46.535156 245.484375 47.15625 L 329.390625 113.265625 C 330.417969 114.078125 331.011719 115.304688 331.011719 116.625 C 331.011719 117.929688 330.417969 119.171875 329.390625 119.984375 L 245.484375 186.09375 C 244.710938 186.714844 243.773438 187.003906 242.851562 187.003906 C 241.585938 187.003906 240.332031 186.449219 239.496094 185.371094 C 238.042969 183.519531 238.359375 180.832031 240.207031 179.375 L 319.847656 116.625 L 240.207031 53.875 C 238.359375 52.417969 238.042969 49.730469 239.496094 47.867188 C 240.332031 46.800781 241.597656 46.246094 242.851562 46.246094 " fill-opacity="1" fill-rule="nonzero"/></g><path fill="#ffffff" d="M 145.804688 230.066406 C 144.882812 230.066406 143.984375 229.890625 143.121094 229.5625 C 141.273438 228.839844 139.804688 227.445312 139.007812 225.632812 C 138.199219 223.804688 138.160156 221.789062 138.871094 219.941406 L 220.816406 7.9375 C 221.914062 5.097656 224.699219 3.183594 227.738281 3.183594 C 228.664062 3.183594 229.574219 3.359375 230.433594 3.6875 C 234.246094 5.171875 236.15625 9.496094 234.675781 13.324219 L 152.742188 225.3125 C 151.640625 228.152344 148.84375 230.066406 145.804688 230.066406 " fill-opacity="1" fill-rule="nonzero"/><g clip-path="url(#id3)"><path fill="#000000" d="M 227.738281 0.0117188 C 223.398438 0.0117188 219.421875 2.75 217.867188 6.792969 L 135.921875 218.785156 C 134.90625 221.433594 134.972656 224.3125 136.109375 226.910156 C 137.261719 229.496094 139.339844 231.5 141.984375 232.515625 C 143.210938 232.996094 144.488281 233.238281 145.804688 233.238281 C 150.148438 233.238281 154.121094 230.511719 155.691406 226.457031 L 237.625 14.464844 C 239.738281 9 237.015625 2.839844 231.5625 0.734375 C 230.347656 0.253906 229.054688 0.0117188 227.738281 0.0117188 Z M 227.738281 6.351562 C 228.257812 6.351562 228.777344 6.453125 229.28125 6.640625 C 231.484375 7.492188 232.574219 9.964844 231.726562 12.167969 L 149.78125 224.160156 C 149.136719 225.859375 147.515625 226.898438 145.804688 226.898438 C 145.289062 226.898438 144.769531 226.808594 144.261719 226.605469 C 142.058594 225.757812 140.972656 223.273438 141.832031 221.082031 L 223.765625 9.089844 C 224.421875 7.390625 226.03125 6.351562 227.738281 6.351562 " fill-opacity="1" fill-rule="nonzero"/></g><g fill="#ffffff" fill-opacity="1"><g transform="translate(14.527451, 350.967096)"><g><path d="M 125.28125 0 L 83.40625 0 L 40.25 -83.25 L 39.53125 -83.25 C 40.550781 -70.15625 41.0625 -60.160156 41.0625 -53.265625 L 41.0625 0 L 12.765625 0 L 12.765625 -118.171875 L 54.484375 -118.171875 L 97.46875 -36.046875 L 97.953125 -36.046875 C 97.203125 -47.953125 96.828125 -57.515625 96.828125 -64.734375 L 96.828125 -118.171875 L 125.28125 -118.171875 Z M 125.28125 0 "/></g></g><g transform="translate(152.582158, 350.967096)"><g><path d="M 12.765625 -118.171875 L 53.984375 -118.171875 C 70.046875 -118.171875 81.96875 -115.785156 89.75 -111.015625 C 97.539062 -106.242188 101.4375 -98.820312 101.4375 -88.75 C 101.4375 -82.125 99.738281 -76.460938 96.34375 -71.765625 C 92.945312 -67.078125 88.472656 -64.0625 82.921875 -62.71875 L 82.921875 -61.90625 C 90.253906 -59.96875 95.5625 -56.734375 98.84375 -52.203125 C 102.132812 -47.679688 103.78125 -41.8125 103.78125 -34.59375 C 103.78125 -23.875 99.75 -15.425781 91.6875 -9.25 C 83.632812 -3.082031 72.660156 0 58.765625 0 L 12.765625 0 Z M 44.703125 -72.828125 L 54.3125 -72.828125 C 58.894531 -72.828125 62.4375 -73.769531 64.9375 -75.65625 C 67.445312 -77.539062 68.703125 -80.34375 68.703125 -84.0625 C 68.703125 -90.6875 63.691406 -94 53.671875 -94 L 44.703125 -94 Z M 44.703125 -49.46875 L 44.703125 -24.65625 L 55.9375 -24.65625 C 65.90625 -24.65625 70.890625 -28.859375 70.890625 -37.265625 C 70.890625 -41.191406 69.550781 -44.207031 66.875 -46.3125 C 64.207031 -48.414062 60.34375 -49.46875 55.28125 -49.46875 Z M 44.703125 -49.46875 "/></g></g><g transform="translate(264.125189, 350.967096)"><g><path d="M 12.765625 0 L 12.765625 -118.171875 L 44.703125 -118.171875 L 44.703125 -25.78125 L 90.203125 -25.78125 L 90.203125 0 Z M 12.765625 0 "/></g></g></g></svg>