<svg xmlns="http://www.w3.org/2000/svg" xmlns:xlink="http://www.w3.org/1999/xlink" width="500" zoomAndPan="magnify" viewBox="0 0 375 374.999991" height="500" preserveAspectRatio="xMidYMid meet" version="1.0"><defs><g/><clipPath id="id1"><path d="M 52.292969 47 L 153 47 L 153 193 L 52.292969 193 Z M 52.292969 47 " clip-rule="nonzero"/></clipPath><clipPath id="id2"><path d="M 237 47 L 337.292969 47 L 337.292969 193 L 237 193 Z M 237 47 " clip-rule="nonzero"/></clipPath><clipPath id="id3"><path d="M 145 9.210938 L 244 9.210938 L 244 230.460938 L 145 230.460938 Z M 145 9.210938 " clip-rule="nonzero"/></clipPath></defs><path fill="#000000" d="M 142.207031 189.601562 C 140.632812 189.601562 139.082031 189.074219 137.84375 188.085938 L 58.136719 125.378906 C 56.421875 124.03125 55.441406 122.011719 55.441406 119.835938 C 55.441406 117.660156 56.421875 115.640625 58.132812 114.28125 L 137.84375 51.585938 C 139.082031 50.597656 140.632812 50.070312 142.207031 50.070312 C 144.382812 50.070312 146.417969 51.042969 147.75 52.761719 C 148.917969 54.242188 149.445312 56.09375 149.21875 57.957031 C 149 59.832031 148.050781 61.503906 146.574219 62.671875 L 73.929688 119.835938 L 146.574219 176.988281 C 148.050781 178.167969 149 179.835938 149.21875 181.703125 C 149.445312 183.578125 148.917969 185.417969 147.75 186.90625 C 146.417969 188.617188 144.382812 189.601562 142.207031 189.601562 " fill-opacity="1" fill-rule="nonzero"/><g clip-path="url(#id1)"><path fill="#000000" d="M 142.207031 47.0625 C 139.960938 47.0625 137.757812 47.820312 135.992188 49.214844 L 56.277344 111.921875 C 53.832031 113.859375 52.433594 116.734375 52.433594 119.835938 C 52.433594 122.9375 53.839844 125.824219 56.277344 127.746094 L 135.992188 190.457031 C 137.746094 191.839844 139.960938 192.609375 142.207031 192.609375 C 145.320312 192.609375 148.207031 191.199219 150.121094 188.757812 C 151.792969 186.65625 152.523438 184.023438 152.210938 181.351562 C 151.886719 178.683594 150.554688 176.289062 148.4375 174.632812 L 78.789062 119.835938 L 148.4375 65.039062 C 150.554688 63.367188 151.886719 60.988281 152.210938 58.320312 C 152.523438 55.648438 151.792969 53.015625 150.121094 50.898438 C 148.207031 48.457031 145.308594 47.0625 142.207031 47.0625 Z M 142.207031 53.074219 C 143.410156 53.074219 144.601562 53.605469 145.394531 54.613281 C 146.789062 56.382812 146.476562 58.929688 144.722656 60.316406 L 69.058594 119.835938 L 144.722656 179.355469 C 146.476562 180.738281 146.789062 183.289062 145.394531 185.042969 C 144.601562 186.066406 143.410156 186.59375 142.207031 186.59375 C 141.328125 186.59375 140.453125 186.320312 139.707031 185.730469 L 59.992188 123.023438 C 59.019531 122.253906 58.449219 121.074219 58.449219 119.835938 C 58.449219 118.585938 59.019531 117.417969 59.992188 116.648438 L 139.707031 53.941406 C 140.441406 53.351562 141.328125 53.074219 142.207031 53.074219 " fill-opacity="1" fill-rule="nonzero"/></g><path fill="#000000" d="M 247.378906 189.601562 C 245.203125 189.601562 243.179688 188.617188 241.824219 186.90625 C 239.417969 183.855469 239.945312 179.40625 243.011719 176.988281 L 315.667969 119.835938 L 243.011719 62.671875 C 239.945312 60.265625 239.417969 55.816406 241.824219 52.761719 C 243.179688 51.042969 245.203125 50.070312 247.378906 50.070312 C 248.953125 50.070312 250.503906 50.597656 251.742188 51.585938 L 331.457031 114.28125 C 333.164062 115.640625 334.136719 117.660156 334.136719 119.835938 C 334.136719 122.011719 333.164062 124.03125 331.445312 125.378906 L 251.742188 188.085938 C 250.503906 189.074219 248.953125 189.601562 247.378906 189.601562 " fill-opacity="1" fill-rule="nonzero"/><g clip-path="url(#id2)"><path fill="#000000" d="M 247.378906 47.0625 C 244.277344 47.0625 241.390625 48.457031 239.464844 50.898438 C 236.027344 55.265625 236.785156 61.601562 241.148438 65.039062 L 310.796875 119.835938 L 241.148438 174.632812 C 236.785156 178.058594 236.027344 184.40625 239.464844 188.757812 C 241.390625 191.199219 244.277344 192.609375 247.378906 192.609375 C 249.625 192.609375 251.828125 191.839844 253.59375 190.457031 L 333.308594 127.746094 C 335.75 125.824219 337.144531 122.9375 337.144531 119.835938 C 337.144531 116.734375 335.75 113.859375 333.320312 111.921875 L 253.605469 49.214844 C 251.839844 47.820312 249.625 47.0625 247.378906 47.0625 Z M 247.378906 53.074219 C 248.257812 53.074219 249.144531 53.351562 249.878906 53.941406 L 329.59375 116.648438 C 330.566406 117.417969 331.132812 118.585938 331.132812 119.835938 C 331.132812 121.074219 330.566406 122.253906 329.59375 123.023438 L 249.878906 185.730469 C 249.144531 186.320312 248.253906 186.59375 247.378906 186.59375 C 246.175781 186.59375 244.984375 186.066406 244.191406 185.042969 C 242.808594 183.289062 243.109375 180.738281 244.863281 179.355469 L 320.527344 119.835938 L 244.863281 60.3125 C 243.109375 58.929688 242.808594 56.382812 244.191406 54.613281 C 244.984375 53.605469 246.1875 53.074219 247.378906 53.074219 " fill-opacity="1" fill-rule="nonzero"/></g><path fill="#000000" d="M 155.183594 227.441406 C 154.304688 227.441406 153.449219 227.273438 152.632812 226.960938 C 150.878906 226.277344 149.484375 224.953125 148.726562 223.234375 C 147.957031 221.503906 147.917969 219.589844 148.59375 217.835938 L 226.441406 16.738281 C 227.488281 14.042969 230.132812 12.230469 233.019531 12.230469 C 233.898438 12.230469 234.765625 12.398438 235.582031 12.710938 C 239.199219 14.117188 241.015625 18.21875 239.609375 21.847656 L 161.773438 222.933594 C 160.726562 225.625 158.070312 227.441406 155.183594 227.441406 " fill-opacity="1" fill-rule="nonzero"/><g clip-path="url(#id3)"><path fill="#000000" d="M 233.019531 9.222656 C 228.894531 9.222656 225.121094 11.820312 223.640625 15.65625 L 145.792969 216.742188 C 144.828125 219.253906 144.890625 221.984375 145.972656 224.449219 C 147.066406 226.902344 149.039062 228.800781 151.550781 229.761719 C 152.71875 230.21875 153.933594 230.449219 155.183594 230.449219 C 159.308594 230.449219 163.082031 227.863281 164.574219 224.015625 L 242.410156 22.929688 C 244.421875 17.746094 241.835938 11.902344 236.652344 9.90625 C 235.496094 9.449219 234.269531 9.222656 233.019531 9.222656 Z M 233.019531 15.234375 C 233.511719 15.234375 234.007812 15.332031 234.488281 15.511719 C 236.578125 16.316406 237.613281 18.660156 236.808594 20.753906 L 158.957031 221.839844 C 158.34375 223.449219 156.804688 224.4375 155.183594 224.4375 C 154.691406 224.4375 154.195312 224.351562 153.714844 224.160156 C 151.625 223.355469 150.589844 220.996094 151.40625 218.917969 L 229.246094 17.832031 C 229.871094 16.222656 231.398438 15.234375 233.019531 15.234375 " fill-opacity="1" fill-rule="nonzero"/></g><g fill="#000000" fill-opacity="1"><g transform="translate(14.527451, 350.967096)"><g><path d="M 125.28125 0 L 83.40625 0 L 40.25 -83.25 L 39.53125 -83.25 C 40.550781 -70.15625 41.0625 -60.160156 41.0625 -53.265625 L 41.0625 0 L 12.765625 0 L 12.765625 -118.171875 L 54.484375 -118.171875 L 97.46875 -36.046875 L 97.953125 -36.046875 C 97.203125 -47.953125 96.828125 -57.515625 96.828125 -64.734375 L 96.828125 -118.171875 L 125.28125 -118.171875 Z M 125.28125 0 "/></g></g><g transform="translate(152.582158, 350.967096)"><g><path d="M 12.765625 -118.171875 L 53.984375 -118.171875 C 70.046875 -118.171875 81.96875 -115.785156 89.75 -111.015625 C 97.539062 -106.242188 101.4375 -98.820312 101.4375 -88.75 C 101.4375 -82.125 99.738281 -76.460938 96.34375 -71.765625 C 92.945312 -67.078125 88.472656 -64.0625 82.921875 -62.71875 L 82.921875 -61.90625 C 90.253906 -59.96875 95.5625 -56.734375 98.84375 -52.203125 C 102.132812 -47.679688 103.78125 -41.8125 103.78125 -34.59375 C 103.78125 -23.875 99.75 -15.425781 91.6875 -9.25 C 83.632812 -3.082031 72.660156 0 58.765625 0 L 12.765625 0 Z M 44.703125 -72.828125 L 54.3125 -72.828125 C 58.894531 -72.828125 62.4375 -73.769531 64.9375 -75.65625 C 67.445312 -77.539062 68.703125 -80.34375 68.703125 -84.0625 C 68.703125 -90.6875 63.691406 -94 53.671875 -94 L 44.703125 -94 Z M 44.703125 -49.46875 L 44.703125 -24.65625 L 55.9375 -24.65625 C 65.90625 -24.65625 70.890625 -28.859375 70.890625 -37.265625 C 70.890625 -41.191406 69.550781 -44.207031 66.875 -46.3125 C 64.207031 -48.414062 60.34375 -49.46875 55.28125 -49.46875 Z M 44.703125 -49.46875 "/></g></g><g transform="translate(264.125189, 350.967096)"><g><path d="M 12.765625 0 L 12.765625 -118.171875 L 44.703125 -118.171875 L 44.703125 -25.78125 L 90.203125 -25.78125 L 90.203125 0 Z M 12.765625 0 "/></g></g></g></svg>